<svg width="1758" height="760" viewBox="0 0 1758 760" fill="none" xmlns="http://www.w3.org/2000/svg">
<path d="M1119.69 703.688C1119.69 706.361 1117.52 708.532 1114.84 708.532C1112.17 708.532 1110 706.361 1110 703.688C1110 701.016 1112.17 698.845 1114.84 698.845C1117.52 698.845 1119.69 701.01 1119.69 703.688Z" stroke="#4D2C5E" stroke-opacity="0.1" stroke-width="2" stroke-miterlimit="10" stroke-linecap="round" stroke-linejoin="round"/>
<path d="M1166.68 745.696C1169.36 745.696 1171.52 743.528 1171.52 740.853C1171.52 738.178 1169.36 736.009 1166.68 736.009C1164.01 736.009 1161.84 738.178 1161.84 740.853C1161.84 743.528 1164.01 745.696 1166.68 745.696Z" stroke="#4D2C5E" stroke-opacity="0.1" stroke-width="2" stroke-miterlimit="10" stroke-linecap="round" stroke-linejoin="round"/>
<path d="M1148.44 730.895C1154.15 730.895 1158.77 726.27 1158.77 720.565C1158.77 714.86 1154.15 710.235 1148.44 710.235C1142.74 710.235 1138.11 714.86 1138.11 720.565C1138.11 726.27 1142.74 730.895 1148.44 730.895Z" stroke="#4D2C5E" stroke-opacity="0.1" stroke-width="2" stroke-miterlimit="10" stroke-linecap="round" stroke-linejoin="round"/>
<path d="M1166.44 720.565L1163 726.587L1161.17 733.291L1154.47 735.113L1148.44 738.563L1142.42 735.113L1135.71 733.291L1133.89 726.587L1130.44 720.565L1133.89 714.537L1135.71 707.833L1142.42 706.011L1148.44 702.561L1154.47 706.011L1161.17 707.833L1163 714.537L1166.44 720.565Z" stroke="#4D2C5E" stroke-opacity="0.1" stroke-width="2" stroke-miterlimit="10" stroke-linecap="round" stroke-linejoin="round"/>
<path d="M1161.84 740.853C1161.84 738.18 1164.01 736.009 1166.68 736.009C1168.12 736.009 1169.42 736.646 1170.31 737.65C1173.99 732.936 1176.2 727.01 1176.2 720.559C1176.2 705.228 1163.77 692.8 1148.44 692.8C1133.11 692.8 1120.68 705.228 1120.68 720.559C1120.68 735.891 1133.11 748.318 1148.44 748.318C1153.83 748.318 1158.85 746.779 1163.11 744.123C1162.33 743.26 1161.84 742.116 1161.84 740.853Z" stroke="#4D2C5E" stroke-opacity="0.1" stroke-width="2" stroke-miterlimit="10" stroke-linecap="round" stroke-linejoin="round"/>
<path d="M1148.44 683C1135.49 683 1124.07 689.558 1117.32 699.533C1118.73 700.378 1119.69 701.923 1119.69 703.694C1119.69 706.367 1117.52 708.538 1114.84 708.538C1114.18 708.538 1113.56 708.402 1112.99 708.165C1111.63 712.05 1110.89 716.217 1110.89 720.565C1110.89 741.309 1127.71 758.13 1148.45 758.13C1169.19 758.13 1186.01 741.309 1186.01 720.565C1186.01 699.82 1169.19 683 1148.44 683Z" stroke="#4D2C5E" stroke-opacity="0.1" stroke-width="2" stroke-miterlimit="10" stroke-linecap="round" stroke-linejoin="round"/>
<path d="M1260.84 80.2257L1237.54 72.3102C1235.07 71.4759 1233.76 68.7996 1234.59 66.3368C1235.43 63.8741 1238.1 62.5593 1240.56 63.3936L1263.86 71.3091C1266.33 72.1433 1267.64 74.8196 1266.81 77.2757C1265.97 79.7451 1263.3 81.0666 1260.84 80.2257Z" stroke="#4D2C5E" stroke-opacity="0.1" stroke-width="3" stroke-miterlimit="10"/>
<path d="M1257.78 89.2491L1234.47 81.3336C1232.01 80.4993 1230.69 77.823 1231.53 75.3669C1232.36 72.9042 1235.04 71.5893 1237.5 72.4236L1260.81 80.3325C1263.27 81.1667 1264.59 83.843 1263.75 86.3058C1262.91 88.7685 1260.24 90.0833 1257.78 89.2491Z" stroke="#4D2C5E" stroke-opacity="0.1" stroke-width="3" stroke-miterlimit="10"/>
<path d="M1237.06 39.0531C1237.09 39.1331 1237.11 39.2066 1237.13 39.2867C1237.66 40.9485 1240.73 51.4802 1239.44 63.1666L1264.45 71.4158C1270.37 61.2645 1279.11 54.6371 1280.52 53.6093C1280.58 53.5626 1280.65 53.5159 1280.71 53.4692C1281.39 52.9819 1282.05 52.4613 1282.69 51.9074C1286.46 48.6571 1289.42 44.379 1291.09 39.32C1296.01 24.4234 1287.92 8.35885 1273.02 3.44004C1258.12 -1.47878 1242.06 6.61024 1237.14 21.5068C1235.47 26.5725 1235.3 31.7716 1236.39 36.6237C1236.58 37.438 1236.8 38.2522 1237.06 39.0531Z" stroke="#4D2C5E" stroke-opacity="0.1" stroke-width="3" stroke-miterlimit="10"/>
<path d="M1235.75 81.8809C1235.47 86.8197 1238.51 91.5249 1243.44 93.1534C1248.29 94.7552 1253.47 92.8531 1256.22 88.8286L1235.75 81.8809Z" stroke="#4D2C5E" stroke-opacity="0.1" stroke-width="3" stroke-miterlimit="10"/>
<path d="M1247.27 65.616L1254.7 43.1043C1255.44 40.8884 1254.23 38.4991 1252.01 37.765C1249.8 37.0308 1247.41 38.2388 1246.67 40.4547C1245.94 42.6705 1247.15 45.0598 1249.36 45.7939L1258.28 48.7372" stroke="#4D2C5E" stroke-opacity="0.1" stroke-width="3" stroke-miterlimit="10"/>
<path d="M1257.07 68.853L1264.5 46.3413C1265.23 44.1255 1267.62 42.9241 1269.84 43.6516C1272.05 44.3857 1273.26 46.7751 1272.53 48.9909C1271.79 51.2067 1269.4 52.408 1267.19 51.6805L1258.27 48.7372" stroke="#4D2C5E" stroke-opacity="0.1" stroke-width="3" stroke-miterlimit="10"/>
<path d="M1296.37 47.0754L1303.9 49.5649" stroke="#4D2C5E" stroke-opacity="0.1" stroke-width="3" stroke-miterlimit="10" stroke-linecap="round"/>
<path d="M1299.82 37.5914L1307.66 36.4102" stroke="#4D2C5E" stroke-opacity="0.1" stroke-width="3" stroke-miterlimit="10" stroke-linecap="round"/>
<path d="M1291.1 55.2112L1296.69 60.8308" stroke="#4D2C5E" stroke-opacity="0.1" stroke-width="3" stroke-miterlimit="10" stroke-linecap="round"/>
<path d="M1226.44 23.9962L1218.91 21.5134" stroke="#4D2C5E" stroke-opacity="0.1" stroke-width="3" stroke-miterlimit="10" stroke-linecap="round"/>
<path d="M1229.32 14.3188L1223.73 8.69922" stroke="#4D2C5E" stroke-opacity="0.1" stroke-width="3" stroke-miterlimit="10" stroke-linecap="round"/>
<path d="M1225.84 33.667L1218 34.8483" stroke="#4D2C5E" stroke-opacity="0.1" stroke-width="3" stroke-miterlimit="10" stroke-linecap="round"/>
<path d="M1024.99 158.578L955.788 137.906C950.755 136.404 947.898 131.107 949.4 126.073L963.221 79.7884C964.723 74.7551 970.02 71.8983 975.053 73.4L1044.26 94.0728C1049.29 95.5746 1052.15 100.872 1050.65 105.905L1036.83 152.19C1035.32 157.217 1030.02 160.08 1024.99 158.578Z" stroke="#4D2C5E" stroke-opacity="0.1" stroke-width="4" stroke-miterlimit="10" stroke-linecap="round"/>
<path d="M951.031 120.6L1038.46 146.717" stroke="#4D2C5E" stroke-opacity="0.1" stroke-width="4" stroke-miterlimit="10" stroke-linecap="round"/>
<path d="M994.958 141.244C994.582 142.499 993.257 143.215 992.001 142.839C990.746 142.464 990.03 141.138 990.406 139.883C990.781 138.627 992.107 137.911 993.362 138.287C994.618 138.662 995.333 139.988 994.958 141.244Z" fill="#4D2C5E" fill-opacity="0.5"/>
<path d="M1000.2 151.179L980.598 145.324L977.957 154.166L997.557 160.021L1000.2 151.179Z" stroke="#4D2C5E" stroke-opacity="0.1" stroke-width="4" stroke-miterlimit="10" stroke-linecap="round"/>
<path d="M970.689 152.501L1004.53 162.609" stroke="#4D2C5E" stroke-opacity="0.1" stroke-width="4" stroke-miterlimit="10" stroke-linecap="round"/>
<path d="M1697.72 85.6356C1719.41 85.6356 1737 77.2995 1737 67.0164C1737 56.7333 1719.41 48.3972 1697.72 48.3972C1676.03 48.3972 1658.44 56.7333 1658.44 67.0164C1658.44 77.2995 1676.03 85.6356 1697.72 85.6356Z" stroke="#4D2C5E" stroke-opacity="0.1" stroke-width="3" stroke-miterlimit="10" stroke-linecap="round" stroke-linejoin="round"/>
<path d="M1713.6 76.7216C1724.89 58.193 1726.91 38.8378 1718.13 33.4906C1709.35 28.1434 1693.08 38.8291 1681.8 57.3577C1670.52 75.8863 1668.49 95.2415 1677.28 100.589C1686.06 105.936 1702.32 95.2503 1713.6 76.7216Z" stroke="#4D2C5E" stroke-opacity="0.1" stroke-width="3" stroke-miterlimit="10" stroke-linecap="round" stroke-linejoin="round"/>
<path d="M1718.12 100.58C1726.9 95.2332 1724.88 75.878 1713.6 57.3494C1702.32 38.8208 1686.05 28.1351 1677.27 33.4823C1668.49 38.8295 1670.51 58.1847 1681.79 76.7134C1693.07 95.242 1709.34 105.928 1718.12 100.58Z" stroke="#4D2C5E" stroke-opacity="0.1" stroke-width="3" stroke-miterlimit="10" stroke-linecap="round" stroke-linejoin="round"/>
<path d="M1697.72 71.945C1700.44 71.945 1702.65 69.7383 1702.65 67.0162C1702.65 64.2941 1700.44 62.0874 1697.72 62.0874C1695 62.0874 1692.79 64.2941 1692.79 67.0162C1692.79 69.7383 1695 71.945 1697.72 71.945Z" stroke="#4D2C5E" stroke-opacity="0.1" stroke-width="3" stroke-miterlimit="10" stroke-linecap="round" stroke-linejoin="round"/>
<path d="M1711.54 654.642L1679.1 662.13L1677.65 655.807C1677.31 654.342 1678.22 652.884 1679.68 652.542L1706.81 646.275C1708.28 645.94 1709.74 646.848 1710.08 648.313L1711.54 654.642Z" stroke="#4D2C5E" stroke-opacity="0.1" stroke-width="3" stroke-miterlimit="10" stroke-linecap="round"/>
<path d="M1700.88 620.643C1715.17 609.116 1717.42 588.182 1705.89 573.886C1694.36 559.589 1673.43 557.344 1659.13 568.872C1644.84 580.399 1642.59 601.333 1654.12 615.629C1665.65 629.925 1686.58 632.17 1700.88 620.643Z" stroke="#4D2C5E" stroke-opacity="0.1" stroke-width="3" stroke-miterlimit="10"/>
<path d="M1695.48 624.175L1664.47 565.349L1660.6 558.211C1640.38 568.866 1632.64 593.89 1643.29 614.106C1653.95 634.322 1678.97 642.067 1699.19 631.412L1695.4 624.224" stroke="#4D2C5E" stroke-opacity="0.1" stroke-width="3" stroke-miterlimit="10" stroke-linecap="round" stroke-linejoin="round"/>
<path d="M1671.3 578.239C1681.46 572.887 1688.16 565.654 1686.28 562.084C1684.4 558.515 1674.64 559.96 1664.49 565.313C1654.34 570.666 1647.63 577.899 1649.51 581.469C1651.4 585.038 1661.15 583.592 1671.3 578.239Z" stroke="#4D2C5E" stroke-opacity="0.1" stroke-width="3" stroke-miterlimit="10"/>
<path d="M1673.69 627.406C1680.86 628.788 1688.52 627.846 1695.48 624.175C1702.44 620.505 1707.55 614.713 1710.46 608.021C1703.3 606.639 1695.63 607.581 1688.67 611.252C1681.71 614.922 1676.6 620.714 1673.69 627.406Z" stroke="#4D2C5E" stroke-opacity="0.1" stroke-width="3" stroke-miterlimit="10"/>
<path d="M1695.51 624.139C1703.63 619.858 1703.27 603.218 1694.7 586.973C1686.14 570.728 1672.61 561.03 1664.49 565.312C1656.37 569.593 1656.73 586.233 1665.29 602.478C1673.86 618.723 1687.39 628.421 1695.51 624.139Z" stroke="#4D2C5E" stroke-opacity="0.1" stroke-width="3" stroke-miterlimit="10"/>
<path d="M1650.56 610.268L1709.39 579.257" stroke="#4D2C5E" stroke-opacity="0.1" stroke-width="3" stroke-miterlimit="10"/>
<path d="M1689.63 635.033L1693.07 649.353" stroke="#4D2C5E" stroke-opacity="0.1" stroke-width="3" stroke-miterlimit="10"/>
<path d="M1675.21 663.463L1716.56 653.547" stroke="#4D2C5E" stroke-opacity="0.1" stroke-width="3" stroke-miterlimit="10" stroke-linecap="round"/>
<path d="M1733.73 447.023L1751.04 429.719L1703.09 381.769L1685.78 399.073L1733.73 447.023Z" stroke="#4D2C5E" stroke-opacity="0.1" stroke-width="3" stroke-miterlimit="10" stroke-linecap="round" stroke-linejoin="round"/>
<path d="M1755.71 451.705L1751.03 429.715L1733.72 447.021L1755.71 451.705Z" stroke="#4D2C5E" stroke-opacity="0.1" stroke-width="3" stroke-miterlimit="10" stroke-linecap="round" stroke-linejoin="round"/>
<path d="M1753.53 441.445L1745.45 449.519" stroke="#4D2C5E" stroke-opacity="0.1" stroke-width="3" stroke-miterlimit="10" stroke-linecap="round" stroke-linejoin="round"/>
<path d="M1680.68 385.881L1689.88 376.68C1692.12 374.44 1695.75 374.44 1697.99 376.68L1703.07 381.768L1685.77 399.073L1680.68 393.985C1678.44 391.746 1678.44 388.112 1680.68 385.881Z" stroke="#4D2C5E" stroke-opacity="0.1" stroke-width="3" stroke-miterlimit="10" stroke-linecap="round" stroke-linejoin="round"/>
<path d="M1707.75 386.437L1690.45 403.75" stroke="#4D2C5E" stroke-opacity="0.1" stroke-width="3" stroke-miterlimit="10" stroke-linecap="round" stroke-linejoin="round"/>
<path d="M1742.38 438.368L1699.1 395.097" stroke="#4D2C5E" stroke-opacity="0.1" stroke-width="3" stroke-miterlimit="10" stroke-linecap="round" stroke-linejoin="round"/>
<path d="M381.027 656.206L377.842 663.466" stroke="#4D2C5E" stroke-opacity="0.1" stroke-width="4" stroke-miterlimit="10" stroke-linecap="round" stroke-linejoin="round"/>
<path d="M404.145 666.348L400.96 673.608" stroke="#4D2C5E" stroke-opacity="0.1" stroke-width="4" stroke-miterlimit="10" stroke-linecap="round" stroke-linejoin="round"/>
<path d="M427.269 676.484L424.084 683.743" stroke="#4D2C5E" stroke-opacity="0.1" stroke-width="4" stroke-miterlimit="10" stroke-linecap="round" stroke-linejoin="round"/>
<path d="M365.555 649.421L363.962 653.057" stroke="#4D2C5E" stroke-opacity="0.1" stroke-width="4" stroke-miterlimit="10" stroke-linecap="round" stroke-linejoin="round"/>
<path d="M373.29 652.82L371.698 656.444" stroke="#4D2C5E" stroke-opacity="0.1" stroke-width="4" stroke-miterlimit="10" stroke-linecap="round" stroke-linejoin="round"/>
<path d="M388.718 659.578L387.125 663.214" stroke="#4D2C5E" stroke-opacity="0.1" stroke-width="4" stroke-miterlimit="10" stroke-linecap="round" stroke-linejoin="round"/>
<path d="M396.449 662.97L394.862 666.6" stroke="#4D2C5E" stroke-opacity="0.1" stroke-width="4" stroke-miterlimit="10" stroke-linecap="round" stroke-linejoin="round"/>
<path d="M411.882 669.735L410.289 673.37" stroke="#4D2C5E" stroke-opacity="0.1" stroke-width="4" stroke-miterlimit="10" stroke-linecap="round" stroke-linejoin="round"/>
<path d="M435.38 680.04L433.793 683.671" stroke="#4D2C5E" stroke-opacity="0.1" stroke-width="4" stroke-miterlimit="10" stroke-linecap="round" stroke-linejoin="round"/>
<path d="M419.612 673.127L418.026 676.757" stroke="#4D2C5E" stroke-opacity="0.1" stroke-width="4" stroke-miterlimit="10" stroke-linecap="round" stroke-linejoin="round"/>
<path d="M422.268 738.09L345.93 640.82L445.731 684.577L422.268 738.09Z" stroke="#4D2C5E" stroke-opacity="0.1" stroke-width="4" stroke-miterlimit="10" stroke-linecap="round" stroke-linejoin="round"/>
<path d="M418.378 707.39L397.494 680.781L424.793 692.745L418.378 707.39Z" stroke="#4D2C5E" stroke-opacity="0.1" stroke-width="4" stroke-miterlimit="10" stroke-linecap="round" stroke-linejoin="round"/>
<path d="M608.774 23.9999L580 37.9121L637.351 156.527L666.124 142.614L608.774 23.9999Z" stroke="#4D2C5E" stroke-opacity="0.1" stroke-width="4" stroke-miterlimit="10" stroke-linecap="round" stroke-linejoin="round"/>
<path d="M615.64 38.2336L601.26 45.1836" stroke="#4D2C5E" stroke-opacity="0.1" stroke-width="4" stroke-miterlimit="10" stroke-linecap="round" stroke-linejoin="round"/>
<path d="M628.93 65.7136L614.54 72.6736" stroke="#4D2C5E" stroke-opacity="0.1" stroke-width="4" stroke-miterlimit="10" stroke-linecap="round" stroke-linejoin="round"/>
<path d="M642.22 93.1936L627.83 100.154" stroke="#4D2C5E" stroke-opacity="0.1" stroke-width="4" stroke-miterlimit="10" stroke-linecap="round" stroke-linejoin="round"/>
<path d="M655.5 120.684L641.12 127.634" stroke="#4D2C5E" stroke-opacity="0.1" stroke-width="4" stroke-miterlimit="10" stroke-linecap="round" stroke-linejoin="round"/>
<path d="M620.04 47.3335L612.85 50.8035" stroke="#4D2C5E" stroke-opacity="0.1" stroke-width="4" stroke-miterlimit="10" stroke-linecap="round" stroke-linejoin="round"/>
<path d="M624.48 56.5237L617.29 60.0037" stroke="#4D2C5E" stroke-opacity="0.1" stroke-width="4" stroke-miterlimit="10" stroke-linecap="round" stroke-linejoin="round"/>
<path d="M633.35 74.8635L626.16 78.3335" stroke="#4D2C5E" stroke-opacity="0.1" stroke-width="4" stroke-miterlimit="10" stroke-linecap="round" stroke-linejoin="round"/>
<path d="M637.79 84.0537L630.6 87.5337" stroke="#4D2C5E" stroke-opacity="0.1" stroke-width="4" stroke-miterlimit="10" stroke-linecap="round" stroke-linejoin="round"/>
<path d="M646.66 102.394L639.47 105.864" stroke="#4D2C5E" stroke-opacity="0.1" stroke-width="4" stroke-miterlimit="10" stroke-linecap="round" stroke-linejoin="round"/>
<path d="M651.11 111.583L643.91 115.063" stroke="#4D2C5E" stroke-opacity="0.1" stroke-width="4" stroke-miterlimit="10" stroke-linecap="round" stroke-linejoin="round"/>
<path d="M9.00075 624.631L-22.2292 639.301C-23.8992 640.091 -25.8892 639.371 -26.6792 637.701L-28.6792 633.441C-29.4692 631.771 -28.7492 629.781 -27.0792 628.991L4.15078 614.321C5.82078 613.531 7.81085 614.251 8.60085 615.921L10.6008 620.181C11.3908 621.861 10.6708 623.851 9.00075 624.631Z" stroke="#4D2C5E" stroke-opacity="0.1" stroke-width="4" stroke-miterlimit="10" stroke-linecap="round"/>
<path d="M21.1309 657.951L5.85095 626.131L-18.8691 638.001L-3.58911 669.821L6.0509 723.061C9.2209 729.671 17.1509 732.451 23.7509 729.281L50.4409 716.461C57.0509 713.291 59.8309 705.361 56.6609 698.761L21.1309 657.951Z" stroke="#4D2C5E" stroke-opacity="0.1" stroke-width="4" stroke-miterlimit="10" stroke-linecap="round"/>
<path d="M0.750977 693.831C0.750977 693.831 5.85101 685.571 19.411 686.041C32.971 686.511 35.251 674.161 35.251 674.161" stroke="#4D2C5E" stroke-opacity="0.1" stroke-width="4" stroke-miterlimit="10" stroke-linecap="round"/>
<path d="M52.48 109.96C64.3431 109.96 73.96 100.343 73.96 88.48C73.96 76.6169 64.3431 67 52.48 67C40.617 67 31 76.6169 31 88.48C31 100.343 40.617 109.96 52.48 109.96Z" stroke="#4D2C5E" stroke-opacity="0.1" stroke-width="4" stroke-miterlimit="10" stroke-linecap="round" stroke-linejoin="round"/>
<path d="M82.59 131.18C87.3342 131.18 91.18 127.334 91.18 122.59C91.18 117.846 87.3342 114 82.59 114C77.8459 114 74 117.846 74 122.59C74 127.334 77.8459 131.18 82.59 131.18Z" stroke="#4D2C5E" stroke-opacity="0.1" stroke-width="4" stroke-miterlimit="10" stroke-linecap="round" stroke-linejoin="round"/>
</svg>
